<svg width="23" height="23" fill="none" xmlns="http://www.w3.org/2000/svg"><g clip-path="url('#clip0_10_183')"><path d="M20.96.868H2.041C1.393.868.868 1.393.868 2.04v18.92c0 .648.525 1.173 1.173 1.173h18.92c.648 0 1.173-.525 1.173-1.174V2.041c0-.648-.525-1.173-1.174-1.173Z" fill="#fff"/><path d="M15.54 22.132v-8.235h2.763l.413-3.21H15.54V8.64c0-.929.26-1.563 1.59-1.563h1.7V4.201a22.742 22.742 0 0 0-2.477-.122c-2.448 0-4.133 1.491-4.133 4.242v2.367H9.455v3.209h2.764v8.235h3.32Z" fill="#3D5A98"/></g><defs><clipPath id="clip0_10_183"><path fill="#fff" d="M0 0h23v23H0z"/></clipPath></defs></svg>