<svg width="23" height="23" fill="none" xmlns="http://www.w3.org/2000/svg"><path d="M20.897 9.623h-.772v-.04H11.5v3.834h5.416A5.748 5.748 0 0 1 5.75 11.5a5.75 5.75 0 0 1 5.75-5.75c1.466 0 2.8.553 3.815 1.456l2.71-2.71a9.54 9.54 0 0 0-6.525-2.58c-5.292 0-9.583 4.292-9.583 9.584s4.29 9.583 9.583 9.583c5.292 0 9.583-4.29 9.583-9.583 0-.643-.066-1.27-.186-1.877Z" fill="#FFC107"/><path d="M3.022 7.04 6.17 9.348A5.747 5.747 0 0 1 11.5 5.75c1.466 0 2.8.553 3.815 1.456l2.71-2.71a9.54 9.54 0 0 0-6.525-2.58A9.578 9.578 0 0 0 3.022 7.04Z" fill="#FF3D00"/><path d="M11.5 21.083a9.538 9.538 0 0 0 6.425-2.487l-2.966-2.51A5.707 5.707 0 0 1 11.5 17.25a5.747 5.747 0 0 1-5.406-3.807L2.968 15.85c1.586 3.104 4.807 5.233 8.532 5.233Z" fill="#4CAF50"/><path d="M20.897 9.623h-.772v-.04H11.5v3.834h5.416a5.77 5.77 0 0 1-1.958 2.67l.001-.002 2.966 2.51c-.21.19 3.158-2.303 3.158-7.095 0-.643-.066-1.27-.186-1.877Z" fill="#1976D2"/></svg>