<svg width="24" height="24" viewBox="0 0 24 24" fill="none" xmlns="http://www.w3.org/2000/svg">
<path d="M21.6188 4.64346C21.5034 4.37675 21.3121 4.14986 21.0687 3.99101C20.8253 3.83216 20.5406 3.74836 20.25 3.75002H3.75004C3.45972 3.7506 3.17581 3.8354 2.93275 3.99416C2.68968 4.15291 2.49791 4.37879 2.38069 4.64438C2.26348 4.90998 2.22585 5.20389 2.27239 5.49045C2.31892 5.77701 2.44761 6.04391 2.64285 6.25877L2.65035 6.26721L9.00004 13.0472V20.25C8.99997 20.5215 9.07359 20.7879 9.21303 21.0208C9.35248 21.2538 9.55252 21.4445 9.79184 21.5727C10.0312 21.7008 10.3008 21.7617 10.5719 21.7486C10.8431 21.7356 11.1057 21.6493 11.3316 21.4988L14.3316 19.4981C14.5373 19.3612 14.7059 19.1755 14.8225 18.9576C14.9391 18.7398 15.0001 18.4965 15 18.2494V13.0472L21.3507 6.26721L21.3582 6.25877C21.5555 6.04489 21.6854 5.77764 21.7317 5.49037C21.7781 5.2031 21.7388 4.90854 21.6188 4.64346ZM13.9069 12.0263C13.6464 12.3024 13.5009 12.6675 13.5 13.0472V18.2494L10.5 20.25V13.0472C10.5009 12.6662 10.356 12.2992 10.095 12.0216L3.75004 5.25002H20.25L13.9069 12.0263Z" fill="#936D57"/>
</svg>
