<svg width="24" height="24" viewBox="0 0 24 24" fill="none" xmlns="http://www.w3.org/2000/svg">
<path d="M16.5 21.75C16.5 21.9489 16.421 22.1396 16.2803 22.2803C16.1397 22.4209 15.9489 22.5 15.75 22.5H8.25C8.05109 22.5 7.86032 22.4209 7.71967 22.2803C7.57902 22.1396 7.5 21.9489 7.5 21.75C7.5 21.551 7.57902 21.3603 7.71967 21.2196C7.86032 21.079 8.05109 21 8.25 21H15.75C15.9489 21 16.1397 21.079 16.2803 21.2196C16.421 21.3603 16.5 21.551 16.5 21.75ZM20.25 9.74995C20.2532 11.0002 19.9708 12.2347 19.4242 13.3592C18.8776 14.4837 18.0814 15.4685 17.0963 16.2384C16.912 16.3796 16.7626 16.561 16.6592 16.7688C16.5559 16.9767 16.5014 17.2054 16.5 17.4375V18C16.5 18.3978 16.342 18.7793 16.0607 19.0606C15.7794 19.3419 15.3978 19.5 15 19.5H9C8.60218 19.5 8.22065 19.3419 7.93934 19.0606C7.65804 18.7793 7.5 18.3978 7.5 18V17.4375C7.49985 17.2081 7.44712 16.9819 7.34587 16.7762C7.24462 16.5704 7.09754 16.3906 6.91594 16.2506C5.93338 15.4853 5.13774 14.5066 4.58925 13.3885C4.04075 12.2704 3.75376 11.0422 3.75 9.79683C3.72563 5.32777 7.33688 1.60777 11.8013 1.49995C12.9013 1.47345 13.9955 1.66725 15.0195 2.06997C16.0434 2.47269 16.9765 3.07617 17.7638 3.84491C18.5511 4.61365 19.1766 5.53211 19.6035 6.54622C20.0305 7.56034 20.2503 8.64962 20.25 9.74995ZM18.75 9.74995C18.7503 8.84964 18.5704 7.95836 18.221 7.1286C17.8717 6.29883 17.3598 5.54735 16.7157 4.91837C16.0715 4.2894 15.308 3.79564 14.4701 3.46618C13.6322 3.13671 12.7369 2.9782 11.8369 2.99995C8.18063 3.0862 5.23031 6.13027 5.25 9.78652C5.25336 10.8052 5.4884 11.8098 5.93733 12.7242C6.38627 13.6387 7.03733 14.439 7.84125 15.0646C8.2026 15.3456 8.49489 15.7054 8.69574 16.1167C8.89658 16.528 9.00066 16.9798 9 17.4375V18H11.25V13.8103L8.46938 11.0306C8.32864 10.8898 8.24958 10.699 8.24958 10.5C8.24958 10.3009 8.32864 10.1101 8.46938 9.96933C8.61011 9.8286 8.80098 9.74954 9 9.74954C9.19902 9.74954 9.3899 9.8286 9.53063 9.96933L12 12.4396L14.4694 9.96933C14.5391 9.89965 14.6218 9.84437 14.7128 9.80666C14.8039 9.76895 14.9015 9.74954 15 9.74954C15.0985 9.74954 15.1961 9.76895 15.2872 9.80666C15.3782 9.84437 15.4609 9.89965 15.5306 9.96933C15.6003 10.039 15.6556 10.1217 15.6933 10.2128C15.731 10.3038 15.7504 10.4014 15.7504 10.5C15.7504 10.5985 15.731 10.6961 15.6933 10.7871C15.6556 10.8782 15.6003 10.9609 15.5306 11.0306L12.75 13.8103V18H15V17.4375C15.0008 16.9784 15.1066 16.5256 15.3092 16.1137C15.5118 15.7018 15.8059 15.3417 16.1691 15.0609C16.9754 14.4307 17.6271 13.6247 18.0744 12.7042C18.5217 11.7838 18.7528 10.7733 18.75 9.74995Z" fill="#936D57"/>
</svg>
