<svg width="24" height="24" viewBox="0 0 24 24" fill="none" xmlns="http://www.w3.org/2000/svg">
<path d="M11.9997 8.75005C10.2048 8.75005 8.74969 10.2051 8.74969 12C8.74969 13.795 10.2048 15.25 11.9997 15.25C13.7946 15.25 15.2497 13.795 15.2497 12C15.2497 10.2051 13.7946 8.75005 11.9997 8.75005Z" fill="#D8D8D8"/>
<path fill-rule="evenodd" clip-rule="evenodd" d="M6.76923 3.08151C10.2174 2.69614 13.7821 2.69614 17.2302 3.08151C19.1286 3.29369 20.6598 4.78947 20.8826 6.69452C21.2949 10.2195 21.2949 13.7806 20.8826 17.3056C20.6598 19.2106 19.1286 20.7064 17.2302 20.9186C13.7821 21.304 10.2174 21.304 6.76923 20.9186C4.87083 20.7064 3.33964 19.2106 3.11683 17.3056C2.70455 13.7806 2.70455 10.2195 3.11683 6.69452C3.33964 4.78947 4.87083 3.29369 6.76923 3.08151ZM16.9997 6.00005C16.4474 6.00005 15.9997 6.44776 15.9997 7.00005C15.9997 7.55233 16.4474 8.00005 16.9997 8.00005C17.552 8.00005 17.9997 7.55233 17.9997 7.00005C17.9997 6.44776 17.552 6.00005 16.9997 6.00005ZM7.24969 12C7.24969 9.37669 9.37634 7.25005 11.9997 7.25005C14.623 7.25005 16.7497 9.37669 16.7497 12C16.7497 14.6234 14.623 16.75 11.9997 16.75C9.37634 16.75 7.24969 14.6234 7.24969 12Z" fill="#D8D8D8"/>
</svg>
