<svg width="24" height="24" viewBox="0 0 24 24" fill="none" xmlns="http://www.w3.org/2000/svg">
<path d="M14.5791 2.32603C14.4529 2.26457 14.3121 2.23972 14.1726 2.25431C14.033 2.26889 13.9004 2.32232 13.7897 2.40853L7.24219 7.50009H3C2.60218 7.50009 2.22064 7.65813 1.93934 7.93943C1.65804 8.22074 1.5 8.60227 1.5 9.00009V15.0001C1.5 15.3979 1.65804 15.7794 1.93934 16.0608C2.22064 16.3421 2.60218 16.5001 3 16.5001H7.24219L13.7897 21.5917C13.9005 21.6778 14.0332 21.7311 14.1728 21.7455C14.3124 21.76 14.4533 21.735 14.5793 21.6733C14.7054 21.6117 14.8117 21.516 14.8861 21.3969C14.9604 21.2779 14.9999 21.1404 15 21.0001V3.00009C15 2.85959 14.9606 2.7219 14.8861 2.60273C14.8117 2.48355 14.7053 2.38768 14.5791 2.32603ZM13.5 19.4663L7.96031 15.1585C7.82897 15.0556 7.66686 14.9998 7.5 15.0001H3V9.00009H7.5C7.66686 9.00036 7.82897 8.94457 7.96031 8.84165L13.5 4.53384V19.4663ZM18.75 9.75009V14.2501C18.75 14.449 18.671 14.6398 18.5303 14.7804C18.3897 14.9211 18.1989 15.0001 18 15.0001C17.8011 15.0001 17.6103 14.9211 17.4697 14.7804C17.329 14.6398 17.25 14.449 17.25 14.2501V9.75009C17.25 9.55118 17.329 9.36041 17.4697 9.21976C17.6103 9.07911 17.8011 9.00009 18 9.00009C18.1989 9.00009 18.3897 9.07911 18.5303 9.21976C18.671 9.36041 18.75 9.55118 18.75 9.75009Z" fill="#A68876"/>
</svg>
