<svg width="121" height="40" viewBox="0 0 121 40" fill="none" xmlns="http://www.w3.org/2000/svg">
<path d="M1.32323 3.48861C3.44041 3.48861 4.42683 2.5022 4.45089 0.385014H7.16954V17.4668H3.681V6.08697H-1.02622e-05V3.48861H1.32323ZM10.2098 5.79827C10.4985 2.43002 13.0487 7.21791e-05 16.7538 7.21791e-05C20.2905 7.21791e-05 22.8407 2.16537 22.8407 5.14868C22.8407 7.79515 20.7476 9.31086 18.3898 10.6822C17.4756 11.2115 14.4201 13.04 14.3239 14.4835H22.9129V17.4668H10.0654C10.0654 12.3904 13.0006 10.1529 16.3929 8.22821C18.1252 7.16962 19.2319 6.25538 19.2319 5.12462C19.2319 3.87355 18.2214 2.98337 16.7538 2.98337C15.1659 2.98337 14.1314 4.04197 13.7946 6.0148L10.2098 5.79827ZM25.7547 0.385014H29.2673V7.91545L35.5947 0.385014H39.5404L33.237 7.91545L39.9494 17.4668H36.1L31.0476 10.2732L29.2673 12.3663V17.4668H25.7547V0.385014ZM41.5935 9.14245H45.9V4.83591H48.739V9.14245H53.0455V11.9814H48.739V16.2879H45.9V11.9814H41.5935V9.14245Z" fill="white"/>
<path d="M59.5434 7.90342H60.8426L60.8967 9.67175C61.2215 8.46279 61.9432 7.90342 63.1883 7.90342H64.1086V9.2026H63.1883C61.7267 9.2026 61.023 10.1048 61.023 11.7649V17.4668H59.5434V7.90342ZM65.078 12.6851C65.078 9.6537 66.7922 7.68689 69.4447 7.68689C71.5739 7.68689 73.4325 9.11238 73.5949 12.4866L73.6129 13.1543H66.6478C66.7922 15.1211 67.7846 16.2759 69.4447 16.2759C70.4913 16.2759 71.4296 15.6624 71.8626 14.6519L73.4505 14.7602C72.8911 16.5646 71.2852 17.6834 69.4447 17.6834C66.7922 17.6834 65.078 15.7165 65.078 12.6851ZM66.6839 11.837H71.9889C71.7183 9.8161 70.6356 9.09433 69.4447 9.09433C67.9109 9.09433 66.9185 10.1048 66.6839 11.837ZM83.2483 7.90342L79.7478 17.4668H77.9073L74.4067 7.90342H75.9946L78.8275 15.915L81.6605 7.90342H83.2483ZM85.1823 7.90342H86.6619V17.4668H85.1823V7.90342ZM85.1462 6.40575V4.69156H86.698V6.40575H85.1462ZM89.0429 12.6851C89.0429 9.6537 90.7571 7.68689 93.4096 7.68689C95.5388 7.68689 97.3974 9.11238 97.5598 12.4866L97.5778 13.1543H90.6128C90.7571 15.1211 91.7495 16.2759 93.4096 16.2759C94.4562 16.2759 95.3945 15.6624 95.8275 14.6519L97.4154 14.7602C96.856 16.5646 95.2501 17.6834 93.4096 17.6834C90.7571 17.6834 89.0429 15.7165 89.0429 12.6851ZM90.6488 11.837H95.9538C95.6832 9.8161 94.6005 9.09433 93.4096 9.09433C91.8759 9.09433 90.8834 10.1048 90.6488 11.837ZM106.131 7.90342L108.422 15.8248L110.732 7.90342H112.32L109.361 17.4668H107.502L105.355 10.1409L103.189 17.4668H101.331L98.3716 7.90342H99.9595L102.269 15.8248L104.561 7.90342H106.131ZM1.82245 29.3078C1.82245 27.738 2.63444 26.7095 4.38472 26.7095H5.82826V28.0086H4.36668C3.73513 28.0086 3.30207 28.5139 3.30207 29.3078V29.9574H5.71999V31.2746H3.30207V39.5208H1.82245V31.2746H0.523271V29.9574H1.82245V29.3078ZM8.12649 29.9574H9.42567L9.47981 31.7257C9.8046 30.5168 10.5264 29.9574 11.7714 29.9574H12.6917V31.2566H11.7714C10.3098 31.2566 9.60611 32.1588 9.60611 33.8189V39.5208H8.12649V29.9574ZM18.0278 39.7373C15.3753 39.7373 13.6611 37.7705 13.6611 34.7391C13.6611 31.7077 15.3753 29.7409 18.0278 29.7409C20.6803 29.7409 22.3945 31.7077 22.3945 34.7391C22.3945 37.7705 20.6803 39.7373 18.0278 39.7373ZM15.2129 34.7391C15.2129 36.9766 16.2414 38.3299 18.0278 38.3299C19.7961 38.3299 20.8427 36.9766 20.8427 34.7391C20.8427 32.5016 19.7961 31.1483 18.0278 31.1483C16.2414 31.1483 15.2129 32.5016 15.2129 34.7391ZM24.6905 29.9574H26.0438L26.0979 31.5814C26.531 30.4085 27.5234 29.7409 28.8587 29.7409C30.23 29.7409 31.2225 30.4807 31.6375 31.7618C32.0525 30.4626 33.063 29.7409 34.5606 29.7409C36.4733 29.7409 37.5921 31.0761 37.5921 33.3678V39.5208H36.1124V33.8008C36.1124 32.0505 35.4268 31.0581 34.2539 31.0581C32.7562 31.0581 31.8901 32.0686 31.8901 33.8189V39.5208H30.4105V33.8008C30.4105 32.0866 29.7068 31.0581 28.5519 31.0581C27.0723 31.0581 26.1701 32.1047 26.1701 33.8008V39.5208H24.6905V29.9574ZM48.7417 39.7373C46.0892 39.7373 44.375 37.7705 44.375 34.7391C44.375 31.7077 46.0892 29.7409 48.7417 29.7409C51.3942 29.7409 53.1084 31.7077 53.1084 34.7391C53.1084 37.7705 51.3942 39.7373 48.7417 39.7373ZM45.9268 34.7391C45.9268 36.9766 46.9553 38.3299 48.7417 38.3299C50.51 38.3299 51.5566 36.9766 51.5566 34.7391C51.5566 32.5016 50.51 31.1483 48.7417 31.1483C46.9553 31.1483 45.9268 32.5016 45.9268 34.7391ZM62.8226 39.5208H61.4152V37.8968C60.928 39.1419 59.7912 39.7373 58.5281 39.7373C56.3989 39.7373 55.3523 38.1314 55.3523 36.1105V29.9574H56.8319V35.6594C56.8319 37.4457 57.4274 38.4201 58.8348 38.4201C60.3506 38.4201 61.343 37.4457 61.343 35.6594V29.9574H62.8226V39.5208ZM65.889 29.9574H67.1882L67.2423 31.7257C67.5671 30.5168 68.2889 29.9574 69.5339 29.9574H70.4542V31.2566H69.5339C68.0723 31.2566 67.3686 32.1588 67.3686 33.8189V39.5208H65.889V29.9574ZM84.8492 39.5208H83.4417V37.8968C82.9545 39.1419 81.8178 39.7373 80.5547 39.7373C78.4255 39.7373 77.3789 38.1314 77.3789 36.1105V29.9574H78.8585V35.6594C78.8585 37.4457 79.454 38.4201 80.8614 38.4201C82.3771 38.4201 83.3696 37.4457 83.3696 35.6594V29.9574H84.8492V39.5208ZM93.3469 32.8986C93.1303 31.7979 92.0477 31.1483 90.965 31.1483C89.8824 31.1483 89.0163 31.7077 89.0163 32.6279C89.0343 33.5662 90.2433 33.9632 91.3259 34.1978C93.5093 34.6128 95.0791 35.2263 95.0791 37.0849C95.0791 38.9254 93.1845 39.7373 91.362 39.7373C89.1065 39.7373 87.3742 38.4923 87.2299 36.5255L88.7817 36.4172C88.9621 37.572 89.9004 38.3299 91.362 38.3299C92.3364 38.3299 93.5273 38.0051 93.5273 37.0127C93.5273 35.8579 92.1559 35.7315 91.0552 35.4609C89.2869 35.0459 87.4825 34.5406 87.4825 32.7182C87.4645 30.8957 88.9441 29.7409 91.1274 29.7409C93.0401 29.7409 94.5919 30.9498 94.8987 32.7903L93.3469 32.8986ZM96.7806 34.7391C96.7806 31.7077 98.4948 29.7409 101.147 29.7409C103.277 29.7409 105.135 31.1664 105.297 34.5406L105.316 35.2083H98.3505C98.4948 37.1751 99.4872 38.3299 101.147 38.3299C102.194 38.3299 103.132 37.7164 103.565 36.7059L105.153 36.8142C104.594 38.6186 102.988 39.7373 101.147 39.7373C98.4948 39.7373 96.7806 37.7705 96.7806 34.7391ZM98.3865 33.891H103.692C103.421 31.8701 102.338 31.1483 101.147 31.1483C99.6135 31.1483 98.6211 32.1588 98.3865 33.891ZM107.616 29.9574H108.915L108.969 31.7257C109.294 30.5168 110.016 29.9574 111.261 29.9574H112.181V31.2566H111.261C109.799 31.2566 109.096 32.1588 109.096 33.8189V39.5208H107.616V29.9574ZM119.268 32.8986C119.051 31.7979 117.969 31.1483 116.886 31.1483C115.803 31.1483 114.937 31.7077 114.937 32.6279C114.955 33.5662 116.164 33.9632 117.247 34.1978C119.43 34.6128 121 35.2263 121 37.0849C121 38.9254 119.105 39.7373 117.283 39.7373C115.027 39.7373 113.295 38.4923 113.151 36.5255L114.703 36.4172C114.883 37.572 115.821 38.3299 117.283 38.3299C118.257 38.3299 119.448 38.0051 119.448 37.0127C119.448 35.8579 118.077 35.7315 116.976 35.4609C115.208 35.0459 113.403 34.5406 113.403 32.7182C113.385 30.8957 114.865 29.7409 117.048 29.7409C118.961 29.7409 120.513 30.9498 120.82 32.7903L119.268 32.8986Z" fill="#FCFCFC"/>
</svg>
