<svg width="60" height="60" viewBox="0 0 60 60" fill="none" xmlns="http://www.w3.org/2000/svg">
<path d="M30 5.625C25.1791 5.625 20.4664 7.05457 16.458 9.73293C12.4495 12.4113 9.32533 16.2181 7.48045 20.6721C5.63556 25.126 5.15285 30.027 6.09337 34.7553C7.03388 39.4836 9.35538 43.8268 12.7643 47.2357C16.1732 50.6446 20.5164 52.9661 25.2447 53.9066C29.973 54.8472 34.874 54.3644 39.3279 52.5196C43.7819 50.6747 47.5887 47.5505 50.2671 43.542C52.9454 39.5336 54.375 34.8209 54.375 30C54.3669 23.5378 51.7963 17.3426 47.2268 12.7732C42.6574 8.20372 36.4622 5.63306 30 5.625ZM38.5406 31.5609L27.2906 39.0609C26.9821 39.2654 26.6202 39.3747 26.25 39.375C25.7527 39.375 25.2758 39.1775 24.9242 38.8258C24.5726 38.4742 24.375 37.9973 24.375 37.5V22.5C24.3748 22.1605 24.4668 21.8272 24.6411 21.5359C24.8155 21.2446 25.0657 21.006 25.365 20.8458C25.6644 20.6855 26.0016 20.6095 26.3407 20.626C26.6799 20.6424 27.0082 20.7506 27.2906 20.9391L38.5406 28.4391C38.7978 28.6102 39.0087 28.8423 39.1546 29.1146C39.3005 29.3869 39.3768 29.6911 39.3768 30C39.3768 30.3089 39.3005 30.6131 39.1546 30.8854C39.0087 31.1577 38.7978 31.3898 38.5406 31.5609Z" fill="#F7F7F7"/>
</svg>
