<svg width="160" height="121" viewBox="0 0 160 121" fill="none" xmlns="http://www.w3.org/2000/svg">
<path fill-rule="evenodd" clip-rule="evenodd" d="M102.295 3.57162L77.2995 74.6963C70.1987 94.9018 82.6004 115.951 102.295 120.611V3.57162ZM100.718 0L72.3337 59.1446V0H100.718ZM44.4778 89.1263C40.6242 67.7716 26.647 51.9822 0.983213 46.9354C-1.73213 58.2594 1.11282 70.858 10.3149 80.0601C12.4595 82.2046 14.7885 84.0039 17.2429 85.468C25.643 90.4789 35.5114 91.5635 44.4778 89.1263ZM130.039 35.8012V115.669C140.475 108.677 146.767 96.3152 145.586 83.282C145.328 80.4358 144.713 77.5576 143.708 74.6963L130.039 35.8012ZM160 3.75193V79.1463C157.673 76.6307 155.663 73.7099 154.075 70.4019L130.039 20.3172V0H152.182L160 3.75193Z" fill="#E3E3E3"/>
</svg>
