<svg width="146" height="143" viewBox="0 0 146 143" fill="none" xmlns="http://www.w3.org/2000/svg">
<path d="M74.6808 143C29.5957 143 0 117.553 0 71.6383C0 28.7659 29.3191 0 74.1276 0C116.723 0 145.766 23.5106 145.766 65.2766C145.766 70.2553 145.489 74.1276 144.66 78.2766H27.9362C29.0425 104.83 42.0425 118.936 73.851 118.936C102.617 118.936 114.511 109.532 114.511 93.2127V91H144.383V93.4893C144.383 122.808 115.617 143 74.6808 143ZM73.5744 23.5106C43.1489 23.5106 29.8723 37.0638 28.2128 61.6808H117.553V61.1276C117.553 35.6808 102.894 23.5106 73.5744 23.5106Z" fill="#181818"/>
</svg>
