<svg width="282" height="283" viewBox="0 0 282 283" fill="none" xmlns="http://www.w3.org/2000/svg">
<path fill-rule="evenodd" clip-rule="evenodd" d="M107.958 46.6362L141.001 140.66L174.043 46.6362C175.044 43.7888 175.656 40.9245 175.912 38.0921C177.71 18.2654 162.127 0 141.001 0C116.856 -2.11086e-06 99.9523 23.8569 107.958 46.6362ZM107.958 235.366L141.001 141.342L174.043 235.365C175.044 238.213 175.656 241.077 175.912 243.91C177.71 263.736 162.127 282.002 141.001 282.002C116.856 282.002 99.9523 258.145 107.958 235.366ZM141.34 141.001L235.364 107.959C258.143 99.9532 282 116.856 282 141.001C282 162.128 263.735 177.711 243.908 175.913C241.075 175.656 238.211 175.045 235.364 174.044L141.34 141.001ZM46.6362 107.959L140.66 141.001L46.6362 174.044C43.7888 175.045 40.9245 175.656 38.0921 175.913C18.2654 177.711 9.23485e-07 162.128 0 141.001C-1.05541e-06 116.856 23.8569 99.9532 46.6362 107.959ZM141.24 141.242L231.09 184.362C250.137 193.503 256.283 216.712 246.084 233.81C244.627 236.252 242.836 238.57 240.702 240.704C223.629 257.777 194.807 252.86 184.36 231.092L141.24 141.242ZM97.6396 50.9105L140.76 140.76L50.9099 97.6402C29.1419 87.1935 24.2249 58.3717 41.298 41.2986C58.3711 24.2255 87.1928 29.1425 97.6396 50.9105ZM140.76 141.242L97.6401 231.091C88.4991 250.138 65.2899 256.284 48.1928 246.085C45.7503 244.628 43.4326 242.837 41.2985 240.703C24.2254 223.63 29.1424 194.808 50.9104 184.362L140.76 141.242ZM231.09 97.6395L141.24 140.76L184.36 50.9099C194.807 29.1418 223.629 24.2248 240.702 41.2979C242.836 43.4321 244.627 45.7498 246.084 48.1922C256.283 65.2894 250.137 88.4986 231.09 97.6395Z" fill="white"/>
</svg>
