<svg width="40" height="40" viewBox="0 0 40 40" fill="none" xmlns="http://www.w3.org/2000/svg">
<path fill-rule="evenodd" clip-rule="evenodd" d="M15.3131 6.61507L20 19.9518L24.687 6.61507C25.8225 3.38396 23.4249 2.13022e-06 20 0C16.5752 0 14.1776 3.38396 15.3131 6.61507ZM15.3131 33.3849L20 20.0482L24.687 33.3849C25.8225 36.616 23.4249 40 20 40C16.5752 40 14.1776 36.616 15.3131 33.3849ZM20.0482 20L33.3849 15.3131C36.616 14.1776 40 16.5752 40 20C40 23.4249 36.616 25.8225 33.3849 24.687L20.0482 20ZM6.61507 15.3131L19.9518 20L6.61507 24.687C3.38396 25.8225 0 23.4249 0 20C0 16.5752 3.38396 14.1776 6.61507 15.3131ZM20.0341 20.0341L32.7787 26.1504C35.8664 27.6322 36.5638 31.7204 34.1421 34.1421C31.7204 36.5639 27.6322 35.8664 26.1504 32.7787L20.0341 20.0341ZM13.8496 7.22126L19.9659 19.9659L7.22125 13.8496C4.13358 12.3678 3.43613 8.27959 5.85785 5.85787C8.27957 3.43615 12.3678 4.13359 13.8496 7.22126ZM19.9659 20.0341L13.8496 32.7787C12.553 35.4804 9.2609 36.3521 6.83578 34.9055C6.48933 34.6988 6.16058 34.4448 5.85786 34.1421C3.73886 32.0231 4.00797 28.6282 6.17685 26.8199C6.48669 26.5616 6.8353 26.3356 7.22126 26.1504L19.9659 20.0341ZM32.7787 13.8496L20.0341 19.9659L26.1504 7.22125C27.6322 4.13358 31.7204 3.43613 34.1421 5.85785C36.5639 8.27957 35.8664 12.3678 32.7787 13.8496Z" fill="white"/>
</svg>
