<svg width="100" height="100" viewBox="0 0 100 100" fill="none" xmlns="http://www.w3.org/2000/svg">
<path fill-rule="evenodd" clip-rule="evenodd" d="M38.2827 16.5377L50.0001 49.8795L61.7174 16.5377C64.5562 8.45991 58.5622 7.4852e-07 50.0001 0C41.438 -7.4852e-07 35.444 8.45989 38.2827 16.5377ZM38.2827 83.4623L50.0001 50.1205L61.7174 83.4623C62.0723 84.472 62.2891 85.4877 62.3802 86.4921C63.0176 93.5229 57.4919 100 50.0001 100C41.438 100 35.444 91.5401 38.2827 83.4623ZM50.1205 50.0001L83.4623 38.2827C91.5401 35.444 100 41.438 100 50.0001C100 57.4919 93.5229 63.0176 86.4921 62.3802C85.4877 62.2891 84.472 62.0723 83.4623 61.7174L50.1205 50.0001ZM16.5377 38.2827L49.8795 50.0001L16.5377 61.7174C15.528 62.0723 14.5123 62.2891 13.5079 62.3802C6.47712 63.0176 1.91124e-06 57.4919 0 50.0001C-3.7426e-07 41.438 8.45989 35.444 16.5377 38.2827ZM50.0852 50.0852L81.9468 65.376C89.666 69.0806 91.4096 79.301 85.3553 85.3553C79.301 91.4096 69.0805 89.666 65.376 81.9468L50.0852 50.0852ZM34.6239 18.0531L49.9148 49.9148L18.0531 34.624C17.0882 34.1609 16.2167 33.596 15.4421 32.9502C10.0199 28.4294 9.34712 19.9422 14.6446 14.6447C20.6989 8.59036 30.9194 10.334 34.6239 18.0531ZM49.9147 50.085L34.6238 81.9467C30.9193 89.6658 20.6988 91.4095 14.6445 85.3552C8.59023 79.3009 10.3338 69.0804 18.053 65.3759L49.9147 50.085ZM81.9466 34.6242L50.0849 49.915L65.3757 18.0534C69.0803 10.3342 79.3008 8.59059 85.3551 14.6449C86.1118 15.4017 86.7468 16.2236 87.2635 17.0897C90.8801 23.1525 88.7008 31.3827 81.9466 34.6242Z" fill="white"/>
</svg>
