<svg width="353" height="243" viewBox="0 0 353 243" fill="none" xmlns="http://www.w3.org/2000/svg">
<g filter="url(#filter0_b_0_129)">
<path d="M352 202C352 224.091 334.091 242 312 242H41C18.9086 242 1 224.091 1 202V17C1 8.16344 8.16345 1 17 1H248.686C250.808 1 252.843 1.84285 254.343 3.34314L349.657 98.6569C351.157 100.157 352 102.192 352 104.314V202Z" fill="white" fill-opacity="0.2"/>
<path d="M312 242.5C334.368 242.5 352.5 224.368 352.5 202V104.314C352.5 102.059 351.604 99.8974 350.01 98.3033L254.697 2.98959C253.103 1.39552 250.941 0.5 248.686 0.5H17C7.8873 0.5 0.5 7.8873 0.5 17V202C0.5 224.368 18.6324 242.5 41 242.5H312Z" stroke="white" stroke-opacity="0.6"/>
</g>
<defs>
<filter id="filter0_b_0_129" x="-16" y="-16" width="385" height="275" filterUnits="userSpaceOnUse" color-interpolation-filters="sRGB">
<feFlood flood-opacity="0" result="BackgroundImageFix"/>
<feGaussianBlur in="BackgroundImageFix" stdDeviation="8"/>
<feComposite in2="SourceAlpha" operator="in" result="effect1_backgroundBlur_0_129"/>
<feBlend mode="normal" in="SourceGraphic" in2="effect1_backgroundBlur_0_129" result="shape"/>
</filter>
</defs>
</svg>
