<svg width="243" height="243" viewBox="0 0 243 243" fill="none" xmlns="http://www.w3.org/2000/svg">
<g filter="url(#filter0_b_0_145)">
<path d="M242 202C242 224.091 224.091 242 202 242H41C18.9086 242 1 224.091 1 202V17C1 8.16344 8.16344 1 17 1H138.686C140.808 1 142.843 1.84285 144.343 3.34314L239.657 98.6569C241.157 100.157 242 102.192 242 104.314V202Z" fill="white" fill-opacity="0.2"/>
<path d="M202 242.5C224.368 242.5 242.5 224.368 242.5 202V104.314C242.5 102.059 241.604 99.8974 240.01 98.3033L144.697 2.98959C143.103 1.39552 140.941 0.5 138.686 0.5H17C7.8873 0.5 0.5 7.8873 0.5 17V202C0.5 224.368 18.6325 242.5 41 242.5H202Z" stroke="white" stroke-opacity="0.6"/>
</g>
<defs>
<filter id="filter0_b_0_145" x="-16" y="-16" width="275" height="275" filterUnits="userSpaceOnUse" color-interpolation-filters="sRGB">
<feFlood flood-opacity="0" result="BackgroundImageFix"/>
<feGaussianBlur in="BackgroundImageFix" stdDeviation="8"/>
<feComposite in2="SourceAlpha" operator="in" result="effect1_backgroundBlur_0_145"/>
<feBlend mode="normal" in="SourceGraphic" in2="effect1_backgroundBlur_0_145" result="shape"/>
</filter>
</defs>
</svg>
