<svg width="64" height="64" viewBox="0 0 64 64" fill="none" xmlns="http://www.w3.org/2000/svg">
<path fill-rule="evenodd" clip-rule="evenodd" d="M24.501 10.5841L32.0001 31.9229L39.4992 10.5841C41.316 5.41434 37.4798 4.79053e-07 32.0001 0C26.5203 -4.79053e-07 22.6841 5.41433 24.501 10.5841L24.501 10.5841ZM24.501 53.4159L32.0001 32.0771L39.4992 53.4159C41.316 58.5857 37.4798 64 32.0001 64C26.5203 64 22.6841 58.5857 24.501 53.4159ZM32.0771 32.0001L53.4159 24.501C58.5857 22.6841 64 26.5203 64 32.0001C64 37.4798 58.5857 41.316 53.4159 39.4992L32.0771 32.0001ZM10.5841 24.501L31.9229 32.0001L10.5841 39.4992C5.41434 41.316 2.39526e-07 37.4798 0 32.0001C-2.39526e-07 26.5203 5.41433 22.6841 10.5841 24.501L10.5841 24.501ZM32.0545 32.0545L52.446 41.8407C57.3862 44.2116 58.5022 50.7527 54.6274 54.6274C51.237 58.0178 45.8052 57.5873 42.9118 54.117C42.4985 53.6213 42.137 53.0635 41.8406 52.446L32.0545 32.0545ZM22.1593 11.554L31.9455 31.9455L11.554 22.1593C6.61373 19.7884 5.49781 13.2473 9.37257 9.37256C13.2473 5.49781 19.7884 6.61373 22.1593 11.554L22.1593 11.554ZM31.9455 32.0545L22.1593 52.4459C19.7884 57.3862 13.2473 58.5021 9.37258 54.6274C5.98217 51.237 6.41275 45.8051 9.88296 42.9118C10.3787 42.4985 10.9365 42.137 11.554 41.8406L31.9455 32.0545ZM52.446 22.1593L32.0545 31.9454L41.8406 11.554C42.137 10.9365 42.4985 10.3787 42.9119 9.88293C45.8052 6.41272 51.237 5.98214 54.6274 9.37255C55.1118 9.85689 55.5181 10.3829 55.8488 10.9372C58.1634 14.8174 56.7687 20.0848 52.446 22.1593Z" fill="#181818"/>
</svg>
