<svg width="135" height="143" viewBox="0 0 135 143" fill="none" xmlns="http://www.w3.org/2000/svg">
<path d="M70.8085 143C26.5532 143 1.38296 125.574 1.38296 93.7659V92.9361H31.2553V95.1489C31.2553 113.128 42.0425 118.936 70.8085 118.936C97.6382 118.936 105.66 113.404 105.66 101.234C105.66 89.8936 99.0213 86.2979 79.383 83.5319L41.766 78.5532C15.766 75.234 0 64.1702 0 41.2128C0 17.1489 21.8511 0 64.1702 0C106.213 0 131.659 16.8723 131.659 49.5106V50.3404H102.064V48.6808C102.064 32.3617 93.7659 23.7872 63.3404 23.7872C38.1702 23.7872 29.3191 29.3191 29.3191 42.3191C29.3191 53.1064 34.851 56.9787 55.5957 59.7447L87.4042 64.1702C120.043 68.3191 134.979 79.3829 134.979 102.064C134.979 127.787 109.532 143 70.8085 143Z" fill="#181818"/>
</svg>
