<svg width="554" height="100" viewBox="0 0 554 100" fill="none" xmlns="http://www.w3.org/2000/svg">
<path d="M17.147 21.4737H0.833298V-5.9221e-05H17.147V2.08322H3.10888V9.64712H16.6662V11.6983H3.10888V19.3904H17.147V21.4737ZM22.6083 26.9223H20.3327V5.64081H22.384V10.0958H22.6404C23.3455 7.24334 25.7172 5.32031 29.4671 5.32031C34.4029 5.32031 37.2233 8.74971 37.2233 13.5573C37.2233 18.3648 34.4349 21.7942 29.403 21.7942C25.9095 21.7942 23.3775 19.8712 22.6404 16.8264H22.6083V26.9223ZM22.6083 13.8457C22.6083 17.5956 25.0762 19.7109 28.794 19.7109C32.4798 19.7109 34.9157 18.1405 34.9157 13.5573C34.9157 8.97406 32.4478 7.43564 28.8581 7.43564C24.9159 7.43564 22.6083 9.64712 22.6083 13.5573V13.8457ZM47.7761 21.7942C42.616 21.7942 39.1866 18.3648 39.1866 13.5573C39.1866 8.74971 42.616 5.32031 47.7761 5.32031C52.9683 5.32031 56.3977 8.74971 56.3977 13.5573C56.3977 18.3648 52.9683 21.7942 47.7761 21.7942ZM47.7761 19.743C52.135 19.743 54.1542 17.4033 54.1542 13.5573C54.1542 9.74327 52.135 7.37154 47.7761 7.37154C43.4173 7.37154 41.4302 9.74327 41.4302 13.5573C41.4302 17.4033 43.4173 19.743 47.7761 19.743ZM66.9894 21.7942C61.9254 21.7942 58.6242 18.3648 58.6242 13.5573C58.6242 8.74971 61.9254 5.32031 66.9894 5.32031C71.4123 5.32031 74.8738 7.94844 74.8738 11.7624V12.0188H72.6302V11.8265C72.6302 9.00611 70.579 7.40359 66.9573 7.40359C62.7267 7.40359 60.8998 9.67917 60.8998 13.5573C60.8998 17.4354 62.7267 19.7109 66.9573 19.7109C70.579 19.7109 72.6302 18.1084 72.6302 15.288V15.0957H74.8738V15.3521C74.8738 19.1661 71.4123 21.7942 66.9894 21.7942ZM80.1989 21.4737H77.9233V-5.9221e-05H80.1989V10.4804H80.3592C80.872 7.82024 82.9232 5.32031 86.9615 5.32031C91.3845 5.32031 93.596 8.26895 93.596 12.2753V21.4737H91.3204V12.5637C91.3204 8.94201 89.6217 7.40359 86.0641 7.40359C81.8335 7.40359 80.1989 10.0958 80.1989 14.038V21.4737ZM119.558 21.4737H103.244V-5.9221e-05H119.558V2.08322H105.52V9.64712H119.077V11.6983H105.52V19.3904H119.558V21.4737ZM129.571 21.7942C124.507 21.7942 121.686 18.3648 121.686 13.5573C121.686 8.74971 124.507 5.32031 129.378 5.32031C133.128 5.32031 135.468 7.33949 136.173 10.0638H136.333V-5.9221e-05H138.609V21.4737H136.526V16.7944H136.397C135.628 19.9674 133.064 21.7942 129.571 21.7942ZM123.994 13.5573C123.994 18.1405 126.43 19.7109 130.147 19.7109C133.865 19.7109 136.333 17.5636 136.333 13.8137V13.5252C136.333 9.61507 133.994 7.43564 130.083 7.43564C126.462 7.43564 123.994 8.97406 123.994 13.5573ZM149.226 20.1917C144.514 20.1917 141.63 17.0828 141.63 12.756C141.63 8.4292 144.61 5.32031 149.482 5.32031C152.815 5.32031 155.444 6.89078 156.085 9.71122H156.245V5.64081H158.296V19.9674C158.296 25.1916 154.995 27.2428 150.219 27.2428C145.925 27.2428 142.655 25.0954 142.655 21.4096H144.931C144.931 24.198 146.79 25.2877 150.315 25.2877C154.418 25.2877 156.02 24.0378 156.02 20.0956V15.9611H155.86C155.219 18.3969 152.879 20.1917 149.226 20.1917ZM143.905 12.756C143.905 16.7944 146.405 18.1725 149.835 18.1725C153.745 18.1725 156.02 16.2175 156.02 12.8522V12.3073C156.02 9.19841 153.649 7.33949 149.995 7.33949C146.437 7.33949 143.905 8.71765 143.905 12.756ZM169.681 21.7942C164.585 21.7942 161.348 18.5892 161.348 13.5573C161.348 8.74971 164.553 5.32031 169.649 5.32031C174.297 5.32031 177.598 8.01255 177.598 12.724C177.598 13.3009 177.534 13.7816 177.438 14.1983H163.496C163.624 17.7559 165.451 19.9033 169.649 19.9033C173.367 19.9033 175.098 18.5251 175.098 16.2175V15.9931H177.374V16.2175C177.374 19.5186 174.104 21.7942 169.681 21.7942ZM169.617 7.21129C165.515 7.21129 163.656 9.32661 163.496 12.7881H175.45C175.45 12.6278 175.45 12.4676 175.45 12.3073C175.45 8.97406 173.335 7.21129 169.617 7.21129ZM180.296 24.2942H179.623V22.916H180.264C180.68 22.916 180.905 22.8198 180.905 22.2429V21.4737H179.655V17.0187H182.475V22.2109C182.475 23.6211 181.642 24.2942 180.296 24.2942ZM197.54 21.4737H194.719L189.655 5.64081H191.995L195.36 16.1213L196.162 19.4866H196.354L197.444 15.929L201.61 5.64081H204.527L208.661 15.929L209.751 19.4545H209.943L210.712 16.1213L214.11 5.64081H216.449L211.321 21.4737H208.469L204.366 11.1214L203.117 7.59589H202.956L201.706 11.1214L197.54 21.4737ZM220.952 21.4737H218.676V-5.9221e-05H220.952V10.4804H221.112C221.625 7.82024 223.676 5.32031 227.714 5.32031C232.137 5.32031 234.349 8.26895 234.349 12.2753V21.4737H232.073V12.5637C232.073 8.94201 230.374 7.40359 226.817 7.40359C222.586 7.40359 220.952 10.0958 220.952 14.038V21.4737ZM245.645 21.7942C240.549 21.7942 237.312 18.5892 237.312 13.5573C237.312 8.74971 240.517 5.32031 245.613 5.32031C250.26 5.32031 253.561 8.01255 253.561 12.724C253.561 13.3009 253.497 13.7816 253.401 14.1983H239.459C239.587 17.7559 241.414 19.9033 245.613 19.9033C249.33 19.9033 251.061 18.5251 251.061 16.2175V15.9931H253.337V16.2175C253.337 19.5186 250.068 21.7942 245.645 21.7942ZM245.581 7.21129C241.478 7.21129 239.619 9.32661 239.459 12.7881H251.414C251.414 12.6278 251.414 12.4676 251.414 12.3073C251.414 8.97406 249.298 7.21129 245.581 7.21129ZM258.855 21.4737H256.579V5.64081H258.631V9.96762H258.791C259.272 7.43564 261.066 5.32031 264.368 5.32031C268.021 5.32031 269.624 8.01255 269.624 10.9612V12.5317H267.348V11.3137C267.348 8.6215 266.227 7.30744 263.47 7.30744C260.265 7.30744 258.855 9.32661 258.855 12.8842V21.4737ZM279.792 21.7942C274.696 21.7942 271.459 18.5892 271.459 13.5573C271.459 8.74971 274.664 5.32031 279.76 5.32031C284.407 5.32031 287.709 8.01255 287.709 12.724C287.709 13.3009 287.644 13.7816 287.548 14.1983H273.606C273.735 17.7559 275.561 19.9033 279.76 19.9033C283.478 19.9033 285.209 18.5251 285.209 16.2175V15.9931H287.484V16.2175C287.484 19.5186 284.215 21.7942 279.792 21.7942ZM279.728 7.21129C275.626 7.21129 273.767 9.32661 273.606 12.7881H285.561C285.561 12.6278 285.561 12.4676 285.561 12.3073C285.561 8.97406 283.446 7.21129 279.728 7.21129ZM298.887 3.62164H296.611V-5.9221e-05H298.887V3.62164ZM298.887 21.4737H296.611V5.64081H298.887V21.4737ZM304.99 21.4737H302.714V5.64081H304.766V10.6086H304.926C305.471 7.91639 307.714 5.32031 311.657 5.32031C316.112 5.32031 318.323 8.4933 318.323 12.2432V21.4737H316.047V12.5637C316.047 9.29456 314.477 7.40359 310.855 7.40359C307.009 7.40359 304.99 9.74327 304.99 13.8137V21.4737ZM324.302 21.4737H322.026V5.64081H324.077V10.6086H324.238C324.782 7.91639 327.026 5.32031 330.968 5.32031C335.423 5.32031 337.635 8.4933 337.635 12.2432V21.4737H335.359V12.5637C335.359 9.29456 333.789 7.40359 330.167 7.40359C326.321 7.40359 324.302 9.74327 324.302 13.8137V21.4737ZM349.094 21.7942C343.934 21.7942 340.504 18.3648 340.504 13.5573C340.504 8.74971 343.934 5.32031 349.094 5.32031C354.286 5.32031 357.715 8.74971 357.715 13.5573C357.715 18.3648 354.286 21.7942 349.094 21.7942ZM349.094 19.743C353.453 19.743 355.472 17.4033 355.472 13.5573C355.472 9.74327 353.453 7.37154 349.094 7.37154C344.735 7.37154 342.748 9.74327 342.748 13.5573C342.748 17.4033 344.735 19.743 349.094 19.743ZM369.493 21.4737H366.705L359.141 5.64081H361.609L368.019 19.2302H368.211L374.589 5.64081H377.057L369.493 21.4737ZM383.695 21.7942C380.586 21.7942 378.47 20.3199 378.47 17.7559C378.47 15.1598 380.618 14.038 383.566 13.7175L391.098 12.8842V11.6663C391.098 8.58945 389.752 7.37154 386.291 7.37154C382.893 7.37154 381.099 8.58945 381.099 11.3778V11.506H378.823V11.3778C378.823 8.0446 381.579 5.32031 386.451 5.32031C391.258 5.32031 393.31 8.07665 393.31 11.5701V21.4737H391.258V17.211H391.098C390.169 20.1276 387.38 21.7942 383.695 21.7942ZM380.746 17.5956C380.746 19.1981 381.804 20.0315 384.207 20.0315C388.053 20.0315 391.098 18.3328 391.098 14.5188V14.3906L384.272 15.1598C381.9 15.3841 380.746 15.9611 380.746 17.5956ZM406.762 21.4737H403.332C400.191 21.4737 398.172 20.1597 398.172 16.4418V7.59589H395.352V5.64081H398.172V1.85886H400.48V5.64081H406.762V7.59589H400.48V16.57C400.48 18.7815 401.569 19.3904 403.877 19.3904H406.762V21.4737ZM411.533 3.62164H409.257V-5.9221e-05H411.533V3.62164ZM411.533 21.4737H409.257V5.64081H411.533V21.4737ZM423.117 21.7942C417.956 21.7942 414.527 18.3648 414.527 13.5573C414.527 8.74971 417.956 5.32031 423.117 5.32031C428.309 5.32031 431.738 8.74971 431.738 13.5573C431.738 18.3648 428.309 21.7942 423.117 21.7942ZM423.117 19.743C427.475 19.743 429.495 17.4033 429.495 13.5573C429.495 9.74327 427.475 7.37154 423.117 7.37154C418.758 7.37154 416.771 9.74327 416.771 13.5573C416.771 17.4033 418.758 19.743 423.117 19.743ZM437.042 21.4737H434.766V5.64081H436.817V10.6086H436.977C437.522 7.91639 439.766 5.32031 443.708 5.32031C448.163 5.32031 450.374 8.4933 450.374 12.2432V21.4737H448.099V12.5637C448.099 9.29456 446.528 7.40359 442.907 7.40359C439.061 7.40359 437.042 9.74327 437.042 13.8137V21.4737ZM462.237 21.4737H459.962V5.64081H462.013V10.4163H462.141C462.59 7.75614 464.417 5.32031 468.359 5.32031C471.885 5.32031 473.872 7.49974 474.385 10.5766H474.545C474.993 7.85229 476.884 5.32031 480.859 5.32031C484.993 5.32031 487.141 8.2369 487.141 12.2432V21.4737H484.865V12.5637C484.865 9.03816 483.359 7.40359 480.025 7.40359C476.211 7.40359 474.673 9.61507 474.673 13.8137V21.4737H472.397V12.5637C472.397 9.03816 470.923 7.40359 467.59 7.40359C463.744 7.40359 462.237 9.61507 462.237 13.8137V21.4737ZM498.386 21.7942C493.29 21.7942 490.053 18.5892 490.053 13.5573C490.053 8.74971 493.258 5.32031 498.354 5.32031C503.001 5.32031 506.302 8.01255 506.302 12.724C506.302 13.3009 506.238 13.7816 506.142 14.1983H492.2C492.328 17.7559 494.155 19.9033 498.354 19.9033C502.072 19.9033 503.803 18.5251 503.803 16.2175V15.9931H506.078V16.2175C506.078 19.5186 502.809 21.7942 498.386 21.7942ZM498.322 7.21129C494.219 7.21129 492.361 9.32661 492.2 12.7881H504.155C504.155 12.6278 504.155 12.4676 504.155 12.3073C504.155 8.97406 502.04 7.21129 498.322 7.21129ZM516.853 21.7942C511.757 21.7942 508.519 18.5892 508.519 13.5573C508.519 8.74971 511.725 5.32031 516.821 5.32031C521.468 5.32031 524.769 8.01255 524.769 12.724C524.769 13.3009 524.705 13.7816 524.609 14.1983H510.667C510.795 17.7559 512.622 19.9033 516.821 19.9033C520.538 19.9033 522.269 18.5251 522.269 16.2175V15.9931H524.545V16.2175C524.545 19.5186 521.276 21.7942 516.853 21.7942ZM516.788 7.21129C512.686 7.21129 510.827 9.32661 510.667 12.7881H522.622C522.622 12.6278 522.622 12.4676 522.622 12.3073C522.622 8.97406 520.506 7.21129 516.788 7.21129ZM537.499 21.4737H534.069C530.928 21.4737 528.909 20.1597 528.909 16.4418V7.59589H526.089V5.64081H528.909V1.85886H531.217V5.64081H537.499V7.59589H531.217V16.57C531.217 18.7815 532.306 19.3904 534.614 19.3904H537.499V21.4737ZM546.949 21.7942C542.077 21.7942 539.257 19.8392 539.257 16.1854V16.1213H541.532V16.3136C541.532 18.9738 543.103 19.9033 546.981 19.9033C550.539 19.9033 551.756 19.0699 551.756 17.2431C551.756 15.5764 550.763 15.0316 548.135 14.6149L543.904 14.006C541.02 13.6214 539.193 12.4996 539.193 9.87147C539.193 7.08308 541.853 5.32031 546.212 5.32031C550.763 5.32031 553.712 7.24334 553.712 10.9612V11.0253H551.436V10.865C551.436 8.4933 550.186 7.21129 546.148 7.21129C542.814 7.21129 541.436 8.01255 541.436 9.90352C541.436 11.5381 542.27 12.115 544.898 12.4996L548.776 13.0445C552.173 13.5252 554 14.679 554 17.2431C554 20.2238 551.051 21.7942 546.949 21.7942ZM8.3972 60.8557C3.33323 60.8557 0.0320377 57.4263 0.0320377 52.6187C0.0320377 47.8112 3.33323 44.3818 8.3972 44.3818C12.8202 44.3818 16.2816 47.0099 16.2816 50.8239V51.0803H14.0381V50.888C14.0381 48.0676 11.9868 46.465 8.36515 46.465C4.13449 46.465 2.30762 48.7406 2.30762 52.6187C2.30762 56.4968 4.13449 58.7724 8.36515 58.7724C11.9868 58.7724 14.0381 57.1699 14.0381 54.3494V54.1571H16.2816V54.4135C16.2816 58.2275 12.8202 60.8557 8.3972 60.8557ZM27.0874 60.8557C21.9272 60.8557 18.4978 57.4263 18.4978 52.6187C18.4978 47.8112 21.9272 44.3818 27.0874 44.3818C32.2795 44.3818 35.7089 47.8112 35.7089 52.6187C35.7089 57.4263 32.2795 60.8557 27.0874 60.8557ZM27.0874 58.8044C31.4462 58.8044 33.4654 56.4648 33.4654 52.6187C33.4654 48.8047 31.4462 46.433 27.0874 46.433C22.7285 46.433 20.7414 48.8047 20.7414 52.6187C20.7414 56.4648 22.7285 58.8044 27.0874 58.8044ZM41.0123 60.5352H38.7367V44.7023H40.7879V49.4778H40.9161C41.3648 46.8176 43.1917 44.3818 47.1339 44.3818C50.6594 44.3818 52.6466 46.5612 53.1594 49.638H53.3196C53.7683 46.9137 55.6593 44.3818 59.6335 44.3818C63.7681 44.3818 65.9154 47.2983 65.9154 51.3047V60.5352H63.6399V51.6252C63.6399 48.0996 62.1335 46.465 58.8002 46.465C54.9862 46.465 53.4478 48.6765 53.4478 52.8751V60.5352H51.1722V51.6252C51.1722 48.0996 49.6979 46.465 46.3647 46.465C42.5186 46.465 41.0123 48.6765 41.0123 52.8751V60.5352ZM73.0264 60.5352H70.7508V46.6573H68.2188V44.7023H70.7828C71.0392 40.9524 73.5712 39.0614 77.6737 39.0614H79.4044V40.8562H77.3532C74.4686 40.8562 72.8982 41.8177 73.0264 44.7023H79.4044V46.6573H73.0264V60.5352ZM89.4041 60.8557C84.244 60.8557 80.8146 57.4263 80.8146 52.6187C80.8146 47.8112 84.244 44.3818 89.4041 44.3818C94.5963 44.3818 98.0257 47.8112 98.0257 52.6187C98.0257 57.4263 94.5963 60.8557 89.4041 60.8557ZM89.4041 58.8044C93.763 58.8044 95.7822 56.4648 95.7822 52.6187C95.7822 48.8047 93.763 46.433 89.4041 46.433C85.0453 46.433 83.0581 48.8047 83.0581 52.6187C83.0581 56.4648 85.0453 58.8044 89.4041 58.8044ZM103.329 60.5352H101.053V44.7023H103.105V49.0291H103.265C103.746 46.4971 105.541 44.3818 108.842 44.3818C112.495 44.3818 114.098 47.074 114.098 50.0226V51.5931H111.822V50.3752C111.822 47.683 110.701 46.3689 107.944 46.3689C104.739 46.3689 103.329 48.3881 103.329 51.9457V60.5352ZM126.446 60.5352H123.016C119.875 60.5352 117.856 59.2211 117.856 55.5033V46.6573H115.036V44.7023H117.856V40.9203H120.164V44.7023H126.446V46.6573H120.164V55.6315C120.164 57.8429 121.253 58.4519 123.561 58.4519H126.446V60.5352ZM128.621 63.3556H127.948V61.9774H128.589C129.005 61.9774 129.23 61.8813 129.23 61.3044V60.5352H127.98V56.0802H130.8V61.2723C130.8 62.6826 129.967 63.3556 128.621 63.3556Z" fill="#181818"/>
<path d="M141.858 60.5352H139.583V44.7023H141.634V49.0291H141.794C142.275 46.4971 144.07 44.3818 147.371 44.3818C151.025 44.3818 152.627 47.074 152.627 50.0226V51.5931H150.352V50.3752C150.352 47.683 149.23 46.3689 146.474 46.3689C143.269 46.3689 141.858 48.3881 141.858 51.9457V60.5352ZM162.796 60.8557C157.7 60.8557 154.462 57.6506 154.462 52.6187C154.462 47.8112 157.668 44.3818 162.764 44.3818C167.411 44.3818 170.712 47.074 170.712 51.7854C170.712 52.3623 170.648 52.8431 170.552 53.2597H156.61C156.738 56.8173 158.565 58.9647 162.764 58.9647C166.481 58.9647 168.212 57.5865 168.212 55.2789V55.0545H170.488V55.2789C170.488 58.5801 167.219 60.8557 162.796 60.8557ZM162.731 46.2727C158.629 46.2727 156.77 48.3881 156.61 51.8495H168.565C168.565 51.6893 168.565 51.529 168.565 51.3688C168.565 48.0355 166.449 46.2727 162.731 46.2727ZM180.557 60.8557C175.493 60.8557 172.673 57.4263 172.673 52.6187C172.673 47.8112 175.493 44.3818 180.365 44.3818C184.115 44.3818 186.454 46.4009 187.159 49.1252H187.32V39.0614H189.595V60.5352H187.512V55.8558H187.384C186.615 59.0288 184.051 60.8557 180.557 60.8557ZM174.98 52.6187C174.98 57.2019 177.416 58.7724 181.134 58.7724C184.852 58.7724 187.32 56.625 187.32 52.8751V52.5867C187.32 48.6765 184.98 46.4971 181.07 46.4971C177.448 46.4971 174.98 48.0355 174.98 52.6187ZM200.949 60.8557C195.853 60.8557 192.616 57.6506 192.616 52.6187C192.616 47.8112 195.821 44.3818 200.917 44.3818C205.565 44.3818 208.866 47.074 208.866 51.7854C208.866 52.3623 208.802 52.8431 208.706 53.2597H194.764C194.892 56.8173 196.719 58.9647 200.917 58.9647C204.635 58.9647 206.366 57.5865 206.366 55.2789V55.0545H208.641V55.2789C208.641 58.5801 205.372 60.8557 200.949 60.8557ZM200.885 46.2727C196.783 46.2727 194.924 48.3881 194.764 51.8495H206.718C206.718 51.6893 206.718 51.529 206.718 51.3688C206.718 48.0355 204.603 46.2727 200.885 46.2727ZM215.281 60.5352H213.006V46.6573H210.474V44.7023H213.038C213.294 40.9524 215.826 39.0614 219.929 39.0614H221.659V40.8562H219.608C216.724 40.8562 215.153 41.8177 215.281 44.7023H221.659V46.6573H215.281V60.5352ZM226.146 42.6831H223.871V39.0614H226.146V42.6831ZM226.146 60.5352H223.871V44.7023H226.146V60.5352ZM232.282 60.5352H230.006V44.7023H232.058V49.6701H232.218C232.763 46.9778 235.006 44.3818 238.948 44.3818C243.403 44.3818 245.615 47.5548 245.615 51.3047V60.5352H243.339V51.6252C243.339 48.356 241.769 46.465 238.147 46.465C234.301 46.465 232.282 48.8047 232.282 52.8751V60.5352ZM251.594 42.6831H249.318V39.0614H251.594V42.6831ZM251.594 60.5352H249.318V44.7023H251.594V60.5352ZM257.697 60.5352H255.421V44.7023H257.473V49.6701H257.633C258.178 46.9778 260.421 44.3818 264.363 44.3818C268.818 44.3818 271.03 47.5548 271.03 51.3047V60.5352H268.754V51.6252C268.754 48.356 267.184 46.465 263.562 46.465C259.716 46.465 257.697 48.8047 257.697 52.8751V60.5352ZM281.528 59.2532C276.816 59.2532 273.932 56.1443 273.932 51.8175C273.932 47.4907 276.912 44.3818 281.784 44.3818C285.117 44.3818 287.745 45.9522 288.386 48.7727H288.547V44.7023H290.598V59.0288C290.598 64.253 287.297 66.3042 282.521 66.3042C278.226 66.3042 274.957 64.1569 274.957 60.4711H277.233C277.233 63.2595 279.092 64.3492 282.617 64.3492C286.72 64.3492 288.322 63.0992 288.322 59.157V55.0225H288.162C287.521 57.4583 285.181 59.2532 281.528 59.2532ZM276.207 51.8175C276.207 55.8558 278.707 57.234 282.137 57.234C286.047 57.234 288.322 55.2789 288.322 51.9136V51.3688C288.322 48.2599 285.951 46.4009 282.297 46.4009C278.739 46.4009 276.207 47.7791 276.207 51.8175ZM310.047 60.5352H306.618C303.477 60.5352 301.457 59.2211 301.457 55.5033V46.6573H298.637V44.7023H301.457V40.9203H303.765V44.7023H310.047V46.6573H303.765V55.6315C303.765 57.8429 304.855 58.4519 307.162 58.4519H310.047V60.5352ZM314.818 60.5352H312.542V39.0614H314.818V49.5419H314.978C315.491 46.8817 317.542 44.3818 321.581 44.3818C326.004 44.3818 328.215 47.3304 328.215 51.3367V60.5352H325.939V51.6252C325.939 48.0035 324.241 46.465 320.683 46.465C316.453 46.465 314.818 49.1573 314.818 53.0995V60.5352ZM339.511 60.8557C334.415 60.8557 331.178 57.6506 331.178 52.6187C331.178 47.8112 334.383 44.3818 339.479 44.3818C344.126 44.3818 347.428 47.074 347.428 51.7854C347.428 52.3623 347.363 52.8431 347.267 53.2597H333.325C333.454 56.8173 335.28 58.9647 339.479 58.9647C343.197 58.9647 344.928 57.5865 344.928 55.2789V55.0545H347.203V55.2789C347.203 58.5801 343.934 60.8557 339.511 60.8557ZM339.447 46.2727C335.345 46.2727 333.486 48.3881 333.325 51.8495H345.28C345.28 51.6893 345.28 51.529 345.28 51.3688C345.28 48.0355 343.165 46.2727 339.447 46.2727ZM362.612 60.5352H359.791L354.728 44.7023H357.067L360.432 55.1828L361.234 58.548H361.426L362.516 54.9904L366.682 44.7023H369.599L373.733 54.9904L374.823 58.516H375.015L375.785 55.1828L379.182 44.7023H381.522L376.394 60.5352H373.541L369.439 50.1829L368.189 46.6573H368.028L366.778 50.1829L362.612 60.5352ZM388.139 60.8557C385.03 60.8557 382.915 59.3814 382.915 56.8173C382.915 54.2212 385.062 53.0995 388.011 52.779L395.543 51.9457V50.7277C395.543 47.6509 394.197 46.433 390.735 46.433C387.338 46.433 385.543 47.6509 385.543 50.4393V50.5675H383.267V50.4393C383.267 47.106 386.024 44.3818 390.895 44.3818C395.703 44.3818 397.754 47.1381 397.754 50.6316V60.5352H395.703V56.2725H395.543C394.613 59.1891 391.825 60.8557 388.139 60.8557ZM385.19 56.6571C385.19 58.2596 386.248 59.0929 388.652 59.0929C392.498 59.0929 395.543 57.3942 395.543 53.5802V53.452L388.716 54.2212C386.344 54.4456 385.19 55.0225 385.19 56.6571ZM403.578 65.9837H401.591V63.9005H403.995C405.597 63.9005 406.206 63.4197 406.815 62.1056L407.584 60.5031L399.732 44.7023H402.232L406.879 54.1251L408.642 58.0032H408.834L410.533 54.093L414.924 44.7023H417.424L408.834 62.7467C407.681 65.1825 406.206 65.9837 403.578 65.9837ZM427.585 65.9837H425.598V63.9005H428.001C429.604 63.9005 430.213 63.4197 430.822 62.1056L431.591 60.5031L423.739 44.7023H426.239L430.886 54.1251L432.649 58.0032H432.841L434.54 54.093L438.93 44.7023H441.43L432.841 62.7467C431.687 65.1825 430.213 65.9837 427.585 65.9837ZM451.38 60.8557C446.22 60.8557 442.79 57.4263 442.79 52.6187C442.79 47.8112 446.22 44.3818 451.38 44.3818C456.572 44.3818 460.001 47.8112 460.001 52.6187C460.001 57.4263 456.572 60.8557 451.38 60.8557ZM451.38 58.8044C455.739 58.8044 457.758 56.4648 457.758 52.6187C457.758 48.8047 455.739 46.433 451.38 46.433C447.021 46.433 445.034 48.8047 445.034 52.6187C445.034 56.4648 447.021 58.8044 451.38 58.8044ZM469.664 60.8557C465.144 60.8557 462.933 57.7147 462.933 53.9648V44.7023H465.209V53.6123C465.209 56.9135 466.811 58.8044 470.465 58.8044C474.343 58.8044 476.362 56.4648 476.362 52.3944V44.7023H478.638V60.5352H476.586V55.5994H476.426C475.881 58.2916 473.606 60.8557 469.664 60.8557ZM495.305 60.8557C490.434 60.8557 487.613 58.9006 487.613 55.2469V55.1828H489.889V55.3751C489.889 58.0352 491.459 58.9647 495.337 58.9647C498.895 58.9647 500.113 58.1314 500.113 56.3045C500.113 54.6379 499.119 54.093 496.491 53.6764L492.26 53.0674C489.376 52.6828 487.549 51.5611 487.549 48.9329C487.549 46.1445 490.209 44.3818 494.568 44.3818C499.119 44.3818 502.068 46.3048 502.068 50.0226V50.0867H499.792V49.9265C499.792 47.5548 498.542 46.2727 494.504 46.2727C491.171 46.2727 489.793 47.074 489.793 48.965C489.793 50.5995 490.626 51.1764 493.254 51.5611L497.132 52.1059C500.529 52.5867 502.356 53.7405 502.356 56.3045C502.356 59.2852 499.408 60.8557 495.305 60.8557ZM507.621 42.6831H505.346V39.0614H507.621V42.6831ZM507.621 60.5352H505.346V44.7023H507.621V60.5352ZM521.16 60.5352H517.731C514.59 60.5352 512.571 59.2211 512.571 55.5033V46.6573H509.75V44.7023H512.571V40.9203H514.878V44.7023H521.16V46.6573H514.878V55.6315C514.878 57.8429 515.968 58.4519 518.276 58.4519H521.16V60.5352ZM5.22421 99.9171C2.11532 99.9171 -1.26561e-05 98.4428 -1.26561e-05 95.8788C-1.26561e-05 93.2827 2.14737 92.1609 5.096 91.8404L12.6279 91.0071V89.7892C12.6279 86.7124 11.2817 85.4944 7.82029 85.4944C4.42295 85.4944 2.62812 86.7124 2.62812 89.5007V89.6289H0.352542V89.5007C0.352542 86.1675 3.10888 83.4432 7.98054 83.4432C12.7881 83.4432 14.8393 86.1995 14.8393 89.693V99.5966H12.7881V95.3339H12.6279C11.6984 98.2505 8.91 99.9171 5.22421 99.9171ZM2.27557 95.7185C2.27557 97.321 3.33323 98.1544 5.73701 98.1544C9.58306 98.1544 12.6279 96.4557 12.6279 92.6417V92.5135L5.80111 93.2827C3.42938 93.507 2.27557 94.0839 2.27557 95.7185ZM20.8555 99.5966H18.58V83.7637H20.6312V88.7315H20.7914C21.3363 86.0393 23.5798 83.4432 27.522 83.4432C31.977 83.4432 34.1885 86.6162 34.1885 90.3661V99.5966H31.9129V90.6866C31.9129 87.4175 30.3425 85.5265 26.7208 85.5265C22.8747 85.5265 20.8555 87.8662 20.8555 91.9366V99.5966ZM44.7183 99.9171C39.6544 99.9171 36.8339 96.4877 36.8339 91.6802C36.8339 86.8726 39.6544 83.4432 44.526 83.4432C48.2759 83.4432 50.6156 85.4624 51.3207 88.1867H51.481V78.1228H53.7566V99.5966H51.6733V94.9173H51.5451C50.7759 98.0903 48.2118 99.9171 44.7183 99.9171ZM39.1416 91.6802C39.1416 96.2634 41.5774 97.8338 45.2952 97.8338C49.0131 97.8338 51.481 95.6865 51.481 91.9366V91.6481C51.481 87.738 49.1413 85.5585 45.2311 85.5585C41.6094 85.5585 39.1416 87.097 39.1416 91.6802ZM69.745 99.5966H66.9245L61.8606 83.7637H64.2002L67.5655 94.2442L68.3668 97.6095H68.5591L69.6488 94.0519L73.8154 83.7637H76.7319L80.8665 94.0519L81.9562 97.5774H82.1485L82.9177 94.2442L86.315 83.7637H88.6547L83.5266 99.5966H80.6741L76.5717 89.2443L75.3217 85.7188H75.1615L73.9115 89.2443L69.745 99.5966ZM98.6374 99.9171C93.4773 99.9171 90.0479 96.4877 90.0479 91.6802C90.0479 86.8726 93.4773 83.4432 98.6374 83.4432C103.83 83.4432 107.259 86.8726 107.259 91.6802C107.259 96.4877 103.83 99.9171 98.6374 99.9171ZM98.6374 97.8659C102.996 97.8659 105.015 95.5262 105.015 91.6802C105.015 87.8662 102.996 85.4944 98.6374 85.4944C94.2786 85.4944 92.2914 87.8662 92.2914 91.6802C92.2914 95.5262 94.2786 97.8659 98.6374 97.8659ZM112.562 99.5966H110.287V83.7637H112.338V88.0905H112.498C112.979 85.5585 114.774 83.4432 118.075 83.4432C121.729 83.4432 123.331 86.1354 123.331 89.0841V90.6546H121.056V89.4366C121.056 86.7444 119.934 85.4303 117.178 85.4303C113.973 85.4303 112.562 87.4495 112.562 91.0071V99.5966ZM128.243 99.5966H125.968V78.1228H128.243V90.3982H133.564L138.852 83.7637H141.544L135.423 91.3276L141.512 99.5966H138.852L133.532 92.4814H128.243V99.5966ZM145.605 99.5966H142.784V95.1416H145.605V99.5966Z" fill="#181818" fill-opacity="0.18"/>
</svg>
